<mxfile host="app.diagrams.net" modified="2021-03-12T01:52:48.625Z" agent="5.0 (Macintosh; Intel Mac OS X 11_2_3) AppleWebKit/537.36 (KHTML, like Gecko) Chrome/88.0.4324.192 Safari/537.36" etag="B-Ibn8NyPu4Ck5lt_y6_" version="14.4.7" type="github">
  <diagram id="k167iq0o1K_Ad3pwDMe2" name="Page-1">
    <mxGraphModel dx="946" dy="614" grid="0" gridSize="10" guides="1" tooltips="1" connect="1" arrows="1" fold="1" page="1" pageScale="1" pageWidth="827" pageHeight="1169" math="0" shadow="0">
      <root>
        <mxCell id="0" />
        <mxCell id="1" parent="0" />
        <mxCell id="3UefTcVdMiHzJxfoBfnY-1" value="source" style="rounded=1;whiteSpace=wrap;html=1;" vertex="1" parent="1">
          <mxGeometry x="112" y="128" width="108" height="34" as="geometry" />
        </mxCell>
        <mxCell id="3UefTcVdMiHzJxfoBfnY-5" style="edgeStyle=orthogonalEdgeStyle;rounded=0;orthogonalLoop=1;jettySize=auto;html=1;exitX=0.5;exitY=0;exitDx=0;exitDy=0;" edge="1" parent="1" source="3UefTcVdMiHzJxfoBfnY-2" target="3UefTcVdMiHzJxfoBfnY-1">
          <mxGeometry relative="1" as="geometry" />
        </mxCell>
        <mxCell id="3UefTcVdMiHzJxfoBfnY-11" style="edgeStyle=orthogonalEdgeStyle;rounded=0;orthogonalLoop=1;jettySize=auto;html=1;entryX=0.5;entryY=0;entryDx=0;entryDy=0;" edge="1" parent="1" source="3UefTcVdMiHzJxfoBfnY-2" target="3UefTcVdMiHzJxfoBfnY-8">
          <mxGeometry relative="1" as="geometry" />
        </mxCell>
        <mxCell id="3UefTcVdMiHzJxfoBfnY-13" style="edgeStyle=orthogonalEdgeStyle;rounded=0;orthogonalLoop=1;jettySize=auto;html=1;exitX=0.75;exitY=1;exitDx=0;exitDy=0;entryX=0.25;entryY=0;entryDx=0;entryDy=0;" edge="1" parent="1" source="3UefTcVdMiHzJxfoBfnY-2" target="3UefTcVdMiHzJxfoBfnY-9">
          <mxGeometry relative="1" as="geometry" />
        </mxCell>
        <mxCell id="3UefTcVdMiHzJxfoBfnY-2" value="m1" style="rounded=1;whiteSpace=wrap;html=1;" vertex="1" parent="1">
          <mxGeometry x="69" y="233" width="73" height="23" as="geometry" />
        </mxCell>
        <mxCell id="3UefTcVdMiHzJxfoBfnY-6" style="edgeStyle=orthogonalEdgeStyle;rounded=0;orthogonalLoop=1;jettySize=auto;html=1;exitX=0.5;exitY=0;exitDx=0;exitDy=0;entryX=0.5;entryY=1;entryDx=0;entryDy=0;" edge="1" parent="1" source="3UefTcVdMiHzJxfoBfnY-4" target="3UefTcVdMiHzJxfoBfnY-1">
          <mxGeometry relative="1" as="geometry" />
        </mxCell>
        <mxCell id="3UefTcVdMiHzJxfoBfnY-12" style="edgeStyle=orthogonalEdgeStyle;rounded=0;orthogonalLoop=1;jettySize=auto;html=1;entryX=0.5;entryY=0;entryDx=0;entryDy=0;" edge="1" parent="1" source="3UefTcVdMiHzJxfoBfnY-4" target="3UefTcVdMiHzJxfoBfnY-9">
          <mxGeometry relative="1" as="geometry" />
        </mxCell>
        <mxCell id="3UefTcVdMiHzJxfoBfnY-14" style="edgeStyle=orthogonalEdgeStyle;rounded=0;orthogonalLoop=1;jettySize=auto;html=1;exitX=0.25;exitY=1;exitDx=0;exitDy=0;entryX=0.75;entryY=0;entryDx=0;entryDy=0;" edge="1" parent="1" source="3UefTcVdMiHzJxfoBfnY-4" target="3UefTcVdMiHzJxfoBfnY-8">
          <mxGeometry relative="1" as="geometry">
            <Array as="points">
              <mxPoint x="205" y="256" />
              <mxPoint x="205" y="295" />
              <mxPoint x="124" y="295" />
            </Array>
          </mxGeometry>
        </mxCell>
        <mxCell id="3UefTcVdMiHzJxfoBfnY-4" value="m2" style="rounded=1;whiteSpace=wrap;html=1;" vertex="1" parent="1">
          <mxGeometry x="196" y="233" width="73" height="23" as="geometry" />
        </mxCell>
        <mxCell id="3UefTcVdMiHzJxfoBfnY-8" value="r1" style="rounded=1;whiteSpace=wrap;html=1;" vertex="1" parent="1">
          <mxGeometry x="69" y="322" width="73" height="23" as="geometry" />
        </mxCell>
        <mxCell id="3UefTcVdMiHzJxfoBfnY-9" value="r2" style="rounded=1;whiteSpace=wrap;html=1;" vertex="1" parent="1">
          <mxGeometry x="196" y="322" width="73" height="23" as="geometry" />
        </mxCell>
        <mxCell id="3UefTcVdMiHzJxfoBfnY-29" style="edgeStyle=orthogonalEdgeStyle;rounded=0;orthogonalLoop=1;jettySize=auto;html=1;fillColor=#dae8fc;strokeColor=#6c8ebf;" edge="1" parent="1" source="3UefTcVdMiHzJxfoBfnY-16" target="3UefTcVdMiHzJxfoBfnY-27">
          <mxGeometry relative="1" as="geometry">
            <Array as="points">
              <mxPoint x="476" y="176" />
              <mxPoint x="670" y="176" />
            </Array>
          </mxGeometry>
        </mxCell>
        <mxCell id="3UefTcVdMiHzJxfoBfnY-16" value="source" style="rounded=1;whiteSpace=wrap;html=1;" vertex="1" parent="1">
          <mxGeometry x="422" y="128" width="108" height="34" as="geometry" />
        </mxCell>
        <mxCell id="3UefTcVdMiHzJxfoBfnY-17" style="edgeStyle=orthogonalEdgeStyle;rounded=0;orthogonalLoop=1;jettySize=auto;html=1;exitX=0.5;exitY=0;exitDx=0;exitDy=0;" edge="1" parent="1" source="3UefTcVdMiHzJxfoBfnY-20" target="3UefTcVdMiHzJxfoBfnY-16">
          <mxGeometry relative="1" as="geometry" />
        </mxCell>
        <mxCell id="3UefTcVdMiHzJxfoBfnY-18" style="edgeStyle=orthogonalEdgeStyle;rounded=0;orthogonalLoop=1;jettySize=auto;html=1;entryX=0.5;entryY=0;entryDx=0;entryDy=0;" edge="1" parent="1" source="3UefTcVdMiHzJxfoBfnY-20" target="3UefTcVdMiHzJxfoBfnY-25">
          <mxGeometry relative="1" as="geometry" />
        </mxCell>
        <mxCell id="3UefTcVdMiHzJxfoBfnY-19" style="edgeStyle=orthogonalEdgeStyle;rounded=0;orthogonalLoop=1;jettySize=auto;html=1;exitX=0.75;exitY=1;exitDx=0;exitDy=0;entryX=0.25;entryY=0;entryDx=0;entryDy=0;" edge="1" parent="1" source="3UefTcVdMiHzJxfoBfnY-20" target="3UefTcVdMiHzJxfoBfnY-26">
          <mxGeometry relative="1" as="geometry" />
        </mxCell>
        <mxCell id="3UefTcVdMiHzJxfoBfnY-20" value="m1" style="rounded=1;whiteSpace=wrap;html=1;" vertex="1" parent="1">
          <mxGeometry x="379" y="233" width="73" height="23" as="geometry" />
        </mxCell>
        <mxCell id="3UefTcVdMiHzJxfoBfnY-21" style="edgeStyle=orthogonalEdgeStyle;rounded=0;orthogonalLoop=1;jettySize=auto;html=1;exitX=0.5;exitY=0;exitDx=0;exitDy=0;entryX=0.5;entryY=1;entryDx=0;entryDy=0;" edge="1" parent="1" source="3UefTcVdMiHzJxfoBfnY-24" target="3UefTcVdMiHzJxfoBfnY-16">
          <mxGeometry relative="1" as="geometry" />
        </mxCell>
        <mxCell id="3UefTcVdMiHzJxfoBfnY-22" style="edgeStyle=orthogonalEdgeStyle;rounded=0;orthogonalLoop=1;jettySize=auto;html=1;entryX=0.5;entryY=0;entryDx=0;entryDy=0;" edge="1" parent="1" source="3UefTcVdMiHzJxfoBfnY-24" target="3UefTcVdMiHzJxfoBfnY-26">
          <mxGeometry relative="1" as="geometry" />
        </mxCell>
        <mxCell id="3UefTcVdMiHzJxfoBfnY-23" style="edgeStyle=orthogonalEdgeStyle;rounded=0;orthogonalLoop=1;jettySize=auto;html=1;exitX=0.25;exitY=1;exitDx=0;exitDy=0;entryX=0.75;entryY=0;entryDx=0;entryDy=0;" edge="1" parent="1" source="3UefTcVdMiHzJxfoBfnY-24" target="3UefTcVdMiHzJxfoBfnY-25">
          <mxGeometry relative="1" as="geometry">
            <Array as="points">
              <mxPoint x="515" y="256" />
              <mxPoint x="515" y="295" />
              <mxPoint x="434" y="295" />
            </Array>
          </mxGeometry>
        </mxCell>
        <mxCell id="3UefTcVdMiHzJxfoBfnY-24" value="m2" style="rounded=1;whiteSpace=wrap;html=1;" vertex="1" parent="1">
          <mxGeometry x="506" y="233" width="73" height="23" as="geometry" />
        </mxCell>
        <mxCell id="3UefTcVdMiHzJxfoBfnY-25" value="r1" style="rounded=1;whiteSpace=wrap;html=1;" vertex="1" parent="1">
          <mxGeometry x="379" y="322" width="73" height="23" as="geometry" />
        </mxCell>
        <mxCell id="3UefTcVdMiHzJxfoBfnY-26" value="r2" style="rounded=1;whiteSpace=wrap;html=1;" vertex="1" parent="1">
          <mxGeometry x="506" y="322" width="73" height="23" as="geometry" />
        </mxCell>
        <mxCell id="3UefTcVdMiHzJxfoBfnY-30" style="edgeStyle=orthogonalEdgeStyle;rounded=0;orthogonalLoop=1;jettySize=auto;html=1;exitX=0.25;exitY=1;exitDx=0;exitDy=0;entryX=0.5;entryY=1;entryDx=0;entryDy=0;fillColor=#dae8fc;strokeColor=#6c8ebf;" edge="1" parent="1" source="3UefTcVdMiHzJxfoBfnY-27" target="3UefTcVdMiHzJxfoBfnY-25">
          <mxGeometry relative="1" as="geometry" />
        </mxCell>
        <mxCell id="3UefTcVdMiHzJxfoBfnY-31" style="edgeStyle=orthogonalEdgeStyle;rounded=0;orthogonalLoop=1;jettySize=auto;html=1;entryX=1;entryY=0.5;entryDx=0;entryDy=0;fillColor=#dae8fc;strokeColor=#6c8ebf;" edge="1" parent="1" source="3UefTcVdMiHzJxfoBfnY-27" target="3UefTcVdMiHzJxfoBfnY-26">
          <mxGeometry relative="1" as="geometry" />
        </mxCell>
        <mxCell id="3UefTcVdMiHzJxfoBfnY-27" value="m3" style="rounded=1;whiteSpace=wrap;html=1;fillColor=#dae8fc;strokeColor=#6c8ebf;" vertex="1" parent="1">
          <mxGeometry x="633" y="233" width="73" height="23" as="geometry" />
        </mxCell>
        <mxCell id="3UefTcVdMiHzJxfoBfnY-43" value="source" style="rounded=1;whiteSpace=wrap;html=1;" vertex="1" parent="1">
          <mxGeometry x="112" y="453" width="108" height="34" as="geometry" />
        </mxCell>
        <mxCell id="3UefTcVdMiHzJxfoBfnY-44" style="edgeStyle=orthogonalEdgeStyle;rounded=0;orthogonalLoop=1;jettySize=auto;html=1;exitX=0.5;exitY=0;exitDx=0;exitDy=0;" edge="1" parent="1" source="3UefTcVdMiHzJxfoBfnY-47" target="3UefTcVdMiHzJxfoBfnY-43">
          <mxGeometry relative="1" as="geometry" />
        </mxCell>
        <mxCell id="3UefTcVdMiHzJxfoBfnY-45" style="edgeStyle=orthogonalEdgeStyle;rounded=0;orthogonalLoop=1;jettySize=auto;html=1;entryX=0.5;entryY=0;entryDx=0;entryDy=0;" edge="1" parent="1" source="3UefTcVdMiHzJxfoBfnY-47" target="3UefTcVdMiHzJxfoBfnY-52">
          <mxGeometry relative="1" as="geometry" />
        </mxCell>
        <mxCell id="3UefTcVdMiHzJxfoBfnY-46" style="edgeStyle=orthogonalEdgeStyle;rounded=0;orthogonalLoop=1;jettySize=auto;html=1;exitX=0.75;exitY=1;exitDx=0;exitDy=0;entryX=0.25;entryY=0;entryDx=0;entryDy=0;fillColor=#fff2cc;strokeColor=#d6b656;" edge="1" parent="1" source="3UefTcVdMiHzJxfoBfnY-47" target="3UefTcVdMiHzJxfoBfnY-53">
          <mxGeometry relative="1" as="geometry" />
        </mxCell>
        <mxCell id="3UefTcVdMiHzJxfoBfnY-56" style="edgeStyle=orthogonalEdgeStyle;rounded=0;orthogonalLoop=1;jettySize=auto;html=1;exitX=0.75;exitY=1;exitDx=0;exitDy=0;entryX=0.5;entryY=1;entryDx=0;entryDy=0;fillColor=#0050ef;strokeColor=#001DBC;" edge="1" parent="1" source="3UefTcVdMiHzJxfoBfnY-47" target="3UefTcVdMiHzJxfoBfnY-54">
          <mxGeometry relative="1" as="geometry">
            <Array as="points">
              <mxPoint x="91" y="581" />
              <mxPoint x="91" y="690" />
              <mxPoint x="350" y="690" />
            </Array>
          </mxGeometry>
        </mxCell>
        <mxCell id="3UefTcVdMiHzJxfoBfnY-57" style="edgeStyle=orthogonalEdgeStyle;rounded=0;orthogonalLoop=1;jettySize=auto;html=1;exitX=0.25;exitY=1;exitDx=0;exitDy=0;entryX=0.25;entryY=1;entryDx=0;entryDy=0;fillColor=#0050ef;strokeColor=#001DBC;" edge="1" parent="1" source="3UefTcVdMiHzJxfoBfnY-47" target="3UefTcVdMiHzJxfoBfnY-55">
          <mxGeometry relative="1" as="geometry">
            <Array as="points">
              <mxPoint x="87" y="696" />
              <mxPoint x="429" y="696" />
            </Array>
          </mxGeometry>
        </mxCell>
        <mxCell id="3UefTcVdMiHzJxfoBfnY-47" value="m1" style="rounded=1;whiteSpace=wrap;html=1;" vertex="1" parent="1">
          <mxGeometry x="69" y="558" width="73" height="23" as="geometry" />
        </mxCell>
        <mxCell id="3UefTcVdMiHzJxfoBfnY-48" style="edgeStyle=orthogonalEdgeStyle;rounded=0;orthogonalLoop=1;jettySize=auto;html=1;exitX=0.5;exitY=0;exitDx=0;exitDy=0;entryX=0.5;entryY=1;entryDx=0;entryDy=0;" edge="1" parent="1" source="3UefTcVdMiHzJxfoBfnY-51" target="3UefTcVdMiHzJxfoBfnY-43">
          <mxGeometry relative="1" as="geometry" />
        </mxCell>
        <mxCell id="3UefTcVdMiHzJxfoBfnY-49" style="edgeStyle=orthogonalEdgeStyle;rounded=0;orthogonalLoop=1;jettySize=auto;html=1;entryX=0.5;entryY=0;entryDx=0;entryDy=0;fillColor=#fff2cc;strokeColor=#d6b656;" edge="1" parent="1" source="3UefTcVdMiHzJxfoBfnY-51" target="3UefTcVdMiHzJxfoBfnY-53">
          <mxGeometry relative="1" as="geometry" />
        </mxCell>
        <mxCell id="3UefTcVdMiHzJxfoBfnY-50" style="edgeStyle=orthogonalEdgeStyle;rounded=0;orthogonalLoop=1;jettySize=auto;html=1;exitX=0.25;exitY=1;exitDx=0;exitDy=0;entryX=0.75;entryY=0;entryDx=0;entryDy=0;" edge="1" parent="1" source="3UefTcVdMiHzJxfoBfnY-51" target="3UefTcVdMiHzJxfoBfnY-52">
          <mxGeometry relative="1" as="geometry">
            <Array as="points">
              <mxPoint x="205" y="581" />
              <mxPoint x="205" y="620" />
              <mxPoint x="124" y="620" />
            </Array>
          </mxGeometry>
        </mxCell>
        <mxCell id="3UefTcVdMiHzJxfoBfnY-58" style="edgeStyle=orthogonalEdgeStyle;rounded=0;orthogonalLoop=1;jettySize=auto;html=1;entryX=0.5;entryY=0;entryDx=0;entryDy=0;fillColor=#0050ef;strokeColor=#001DBC;" edge="1" parent="1" source="3UefTcVdMiHzJxfoBfnY-51" target="3UefTcVdMiHzJxfoBfnY-54">
          <mxGeometry relative="1" as="geometry" />
        </mxCell>
        <mxCell id="3UefTcVdMiHzJxfoBfnY-59" style="edgeStyle=orthogonalEdgeStyle;rounded=0;orthogonalLoop=1;jettySize=auto;html=1;fillColor=#0050ef;strokeColor=#001DBC;" edge="1" parent="1" source="3UefTcVdMiHzJxfoBfnY-51" target="3UefTcVdMiHzJxfoBfnY-55">
          <mxGeometry relative="1" as="geometry">
            <Array as="points">
              <mxPoint x="448" y="560" />
            </Array>
          </mxGeometry>
        </mxCell>
        <mxCell id="3UefTcVdMiHzJxfoBfnY-51" value="m2" style="rounded=1;whiteSpace=wrap;html=1;" vertex="1" parent="1">
          <mxGeometry x="196" y="558" width="73" height="23" as="geometry" />
        </mxCell>
        <mxCell id="3UefTcVdMiHzJxfoBfnY-52" value="r1" style="rounded=1;whiteSpace=wrap;html=1;" vertex="1" parent="1">
          <mxGeometry x="69" y="647" width="73" height="23" as="geometry" />
        </mxCell>
        <mxCell id="3UefTcVdMiHzJxfoBfnY-53" value="r2" style="rounded=1;whiteSpace=wrap;html=1;" vertex="1" parent="1">
          <mxGeometry x="196" y="647" width="73" height="23" as="geometry" />
        </mxCell>
        <mxCell id="3UefTcVdMiHzJxfoBfnY-60" style="edgeStyle=orthogonalEdgeStyle;rounded=0;orthogonalLoop=1;jettySize=auto;html=1;exitX=0.25;exitY=1;exitDx=0;exitDy=0;entryX=0.671;entryY=1.13;entryDx=0;entryDy=0;entryPerimeter=0;fillColor=#0050ef;strokeColor=#001DBC;" edge="1" parent="1" source="3UefTcVdMiHzJxfoBfnY-54" target="3UefTcVdMiHzJxfoBfnY-53">
          <mxGeometry relative="1" as="geometry">
            <Array as="points">
              <mxPoint x="331" y="718" />
              <mxPoint x="245" y="718" />
            </Array>
          </mxGeometry>
        </mxCell>
        <mxCell id="3UefTcVdMiHzJxfoBfnY-54" value="r2-1" style="rounded=1;whiteSpace=wrap;html=1;fillColor=#0050ef;strokeColor=#001DBC;fontColor=#ffffff;" vertex="1" parent="1">
          <mxGeometry x="313" y="647" width="73" height="23" as="geometry" />
        </mxCell>
        <mxCell id="3UefTcVdMiHzJxfoBfnY-61" style="edgeStyle=orthogonalEdgeStyle;rounded=0;orthogonalLoop=1;jettySize=auto;html=1;entryX=0.5;entryY=1;entryDx=0;entryDy=0;fillColor=#0050ef;strokeColor=#001DBC;" edge="1" parent="1" source="3UefTcVdMiHzJxfoBfnY-55" target="3UefTcVdMiHzJxfoBfnY-53">
          <mxGeometry relative="1" as="geometry">
            <Array as="points">
              <mxPoint x="448" y="740" />
              <mxPoint x="233" y="740" />
            </Array>
          </mxGeometry>
        </mxCell>
        <mxCell id="3UefTcVdMiHzJxfoBfnY-55" value="r2-2" style="rounded=1;whiteSpace=wrap;html=1;fillColor=#0050ef;strokeColor=#001DBC;fontColor=#ffffff;" vertex="1" parent="1">
          <mxGeometry x="411" y="647" width="73" height="23" as="geometry" />
        </mxCell>
      </root>
    </mxGraphModel>
  </diagram>
</mxfile>
